<svg xmlns="http://www.w3.org/2000/svg" xmlns:xlink="http://www.w3.org/1999/xlink" viewBox="0 0 208.35 66.31"><defs><style>.cls-1{fill:url(#Sfumatura_senza_nome_12);}.cls-2{fill:#fff;}</style><linearGradient id="Sfumatura_senza_nome_12" y1="32.62" x2="60.7" y2="32.62" gradientUnits="userSpaceOnUse"><stop offset="0" stop-color="#ff7e03"/><stop offset="0.37" stop-color="#ff542c"/><stop offset="1" stop-color="#ff0677"/></linearGradient></defs><g id="Livello_2" data-name="Livello 2"><g id="Livello_1-2" data-name="Livello 1"><path class="cls-1" d="M54.51,55.66a3.4,3.4,0,1,1-3.39,3.4,3.4,3.4,0,0,1,3.39-3.4m0-2.79a6.19,6.19,0,1,0,6.19,6.19,6.19,6.19,0,0,0-6.19-6.19ZM42.19,13.65,43,10,51.12,3.8,18,0,0,20.69l6.68.65c-.34,3.49-1.46,11-4.89,14.39l4.32,3c3.43-5.06,2.45-13.48,1.77-17.29l2.75.27,3.79,2.17A22.42,22.42,0,0,0,16.6,48.53a5.08,5.08,0,0,0,.42.61,3.84,3.84,0,0,0,.58.56A22.41,22.41,0,1,0,42.19,13.65Zm3.74,7.18a4.08,4.08,0,0,1,3,1c1.51,1.77.14,7.06-4.65,12.94v-.18a42.29,42.29,0,0,0-2-13.2,14,14,0,0,1,3.59-.54Zm-4.6-2.06a18.38,18.38,0,0,0-1.72-3,19,19,0,0,1,5.16,2.36A17.79,17.79,0,0,0,41.33,18.77ZM34,15h.07c1.43,0,3.16,1.72,4.59,4.75a42.41,42.41,0,0,0-11.28,7.07l-.14.12C28.58,19.47,31.68,15,34,15ZM29.19,28.89a40.21,40.21,0,0,1,10.5-6.6,39,39,0,0,1,1.83,12.28c0,1.17-.05,2.29-.13,3.38-.78.76-1.59,1.53-2.48,2.3A40,40,0,0,1,28.4,46.84a38.94,38.94,0,0,1-1.82-12.27c0-1.18.05-2.3.13-3.38C27.5,30.41,28.32,29.64,29.19,28.89Zm-13,13.54A19.6,19.6,0,0,1,28.45,15.79C26.21,19,24.57,24,24,30,19.92,34.19,17.15,38.67,16.16,42.43Zm3.45,5.29c-.27-.3-.54-.59-.79-.9-.58-1.32-.23-3.64,1-6.29a29.41,29.41,0,0,1,4-6.15v.19a42.54,42.54,0,0,0,2,13.19,13.53,13.53,0,0,1-3.59.55A4.91,4.91,0,0,1,19.61,47.72ZM23.47,51a18,18,0,0,0,3.3-.66,17.88,17.88,0,0,0,1.68,3A19.38,19.38,0,0,1,23.47,51Zm10.58,3.17c-1.44,0-3.17-1.71-4.61-4.75a42.21,42.21,0,0,0,11.28-7.08l.14-.12C39.51,49.71,36.38,54.19,34.05,54.19Zm5.55-.78c2.27-3.19,3.92-8.27,4.49-14.22,4.18-4.34,7-8.92,7.9-12.73A19.58,19.58,0,0,1,39.6,53.41Z"/><path class="cls-2" d="M80,55a3,3,0,0,1-1.9.77,2.67,2.67,0,0,1-2.23-1.49,3.54,3.54,0,1,1,3.72-3.54,3.49,3.49,0,0,1-2.52,3.36,1.68,1.68,0,0,0,1.17.65,2.36,2.36,0,0,0,1.29-.57Zm-4.11-1.77a2.48,2.48,0,1,0-2.52-2.49A2.51,2.51,0,0,0,75.87,53.26Z"/><path class="cls-2" d="M87.52,51.37a3,3,0,0,1-6.09,0v-4.1h1.18v4.1a1.75,1.75,0,0,0,1.88,1.89,1.72,1.72,0,0,0,1.85-1.89v-4.1h1.18Z"/><path class="cls-2" d="M90.59,52.69l-.67,1.57H88.69l3.09-7H93l3.06,7H94.79l-.67-1.57Zm1.76-4.16L91,51.64h2.64Z"/><path class="cls-2" d="M102.48,54.26l-3.73-5v5H97.57v-7h1.16l3.75,5v-5h1.16v7Z"/><path class="cls-2" d="M108.64,48.33v5.93h-1.18V48.33h-2.21V47.27h5.61v1.06Z"/><path class="cls-2" d="M118.41,51.37a3,3,0,0,1-6.09,0v-4.1h1.18v4.1a1.75,1.75,0,0,0,1.88,1.89,1.72,1.72,0,0,0,1.85-1.89v-4.1h1.18Z"/><path class="cls-2" d="M127,54.26V49l-2.21,4.5H124L121.8,49v5.22h-1.11v-7h1.4l2.31,4.65,2.3-4.65h1.39v7Z"/><path class="cls-2" d="M136.26,48.33v5.93h-1.18V48.33h-2.21V47.27h5.61v1.06Z"/><path class="cls-2" d="M141.26,48.33v1.89h3.42v1.06h-3.42v1.93h3.94v1h-5.12v-7h5v1.06Z"/><path class="cls-2" d="M153,48.32l-.69.86a2.73,2.73,0,0,0-2-.89,2.47,2.47,0,1,0,0,4.93,2.89,2.89,0,0,0,2-.83l.7.78a4,4,0,0,1-2.71,1.14,3.54,3.54,0,1,1,0-7.07A3.86,3.86,0,0,1,153,48.32Z"/><path class="cls-2" d="M159.68,54.26V51.37H156v2.89h-1.18v-7H156v3h3.71v-3h1.18v7Z"/><path class="cls-2" d="M168.2,54.26l-3.73-5v5h-1.18v-7h1.16l3.75,5v-5h1.16v7Z"/><path class="cls-2" d="M178.64,50.77a3.71,3.71,0,1,1-3.71-3.53A3.57,3.57,0,0,1,178.64,50.77Zm-6.22,0a2.51,2.51,0,0,0,2.52,2.49,2.48,2.48,0,1,0-2.52-2.49Z"/><path class="cls-2" d="M184.7,53.2v1.06h-4.21v-7h1.18V53.2Z"/><path class="cls-2" d="M193.26,50.77a3.71,3.71,0,1,1-3.71-3.53A3.57,3.57,0,0,1,193.26,50.77Zm-6.22,0a2.51,2.51,0,0,0,2.52,2.49A2.48,2.48,0,1,0,187,50.77Z"/><path class="cls-2" d="M200.65,50.83v2.58a4.74,4.74,0,0,1-2.72.9,3.54,3.54,0,1,1,.07-7.07,4.2,4.2,0,0,1,2.69,1l-.67.87a3,3,0,0,0-2-.8,2.49,2.49,0,1,0,0,5,3.26,3.26,0,0,0,1.61-.48v-2Z"/><path class="cls-2" d="M205.78,54.26h-1.17V52L202,47.27h1.19l2,3.41,2-3.41h1.2l-2.57,4.67Z"/><path class="cls-2" d="M73.91,60.33v1.89h3.42v1.06H73.91v1.93h3.94v1.05H72.73v-7h5v1.06Z"/><path class="cls-2" d="M82.75,59.27a3.5,3.5,0,1,1,0,7H79.88v-7Zm-1.69,5.94h1.72a2.35,2.35,0,0,0,2.4-2.43,2.39,2.39,0,0,0-2.45-2.45H81.06Z"/><path class="cls-2" d="M94.17,63.37a3,3,0,0,1-6.09,0v-4.1h1.18v4.1a1.75,1.75,0,0,0,1.88,1.89A1.72,1.72,0,0,0,93,63.37v-4.1h1.18Z"/><path class="cls-2" d="M102.21,60.32l-.69.86a2.73,2.73,0,0,0-2-.89,2.47,2.47,0,1,0,0,4.93,2.89,2.89,0,0,0,2-.83l.7.78a4,4,0,0,1-2.71,1.14,3.54,3.54,0,1,1,0-7.07A3.86,3.86,0,0,1,102.21,60.32Z"/><path class="cls-2" d="M105,64.69l-.67,1.57h-1.23l3.09-7h1.21l3.06,7h-1.26l-.67-1.57Zm1.76-4.16-1.32,3.11H108Z"/><path class="cls-2" d="M113.8,60.33v5.93h-1.18V60.33h-2.21V59.27H116v1.06Z"/><path class="cls-2" d="M117.62,66.26v-7h1.18v7Z"/><path class="cls-2" d="M128.07,62.77a3.71,3.71,0,1,1-3.71-3.53A3.57,3.57,0,0,1,128.07,62.77Zm-6.22,0a2.51,2.51,0,0,0,2.52,2.49,2.48,2.48,0,1,0-2.52-2.49Z"/><path class="cls-2" d="M134.83,66.26l-3.73-5v5h-1.18v-7h1.16l3.75,5v-5H136v7Z"/><path class="cls-2" d="M78.38,21.83a8.63,8.63,0,1,1-8.6,8.65A8.6,8.6,0,0,1,78.38,21.83Zm0,14.85a6.23,6.23,0,1,0-6.21-6.2A6.23,6.23,0,0,0,78.38,36.68Z"/><path class="cls-2" d="M93.9,24.32H90a.46.46,0,0,1-.45-.46V22.52a.45.45,0,0,1,.45-.45h10.3a.45.45,0,0,1,.46.45v1.34a.46.46,0,0,1-.46.46h-3.9V38.38a.48.48,0,0,1-.46.46H94.35a.47.47,0,0,1-.45-.46Z"/><path class="cls-2" d="M104.75,22.52a.45.45,0,0,1,.45-.45h9.58a.45.45,0,0,1,.46.45v1.34a.46.46,0,0,1-.46.46h-7.57v4.89h6.4a.46.46,0,0,1,.45.45V31a.45.45,0,0,1-.45.46h-6.4v5.15h7.57a.45.45,0,0,1,.46.45v1.32a.46.46,0,0,1-.46.46H105.2a.46.46,0,0,1-.45-.46Z"/><path class="cls-2" d="M123.09,29a5.71,5.71,0,0,1,2.3.53v-7a.47.47,0,0,1,.46-.45h1.39a.46.46,0,0,1,.45.45V38.38a.47.47,0,0,1-.45.46h-.72c-.22,0-.36-.17-.43-.41l-.19-.7a4.28,4.28,0,0,1-3.05,1.35c-2.54,0-4.48-2.28-4.48-5A4.84,4.84,0,0,1,123.09,29Zm0,8a2.6,2.6,0,0,0,2.28-1.44V31.67a4,4,0,0,0-2.09-.57A2.78,2.78,0,0,0,120.6,34,2.72,2.72,0,0,0,123.14,37Z"/><path class="cls-2" d="M132.07,29.71a.48.48,0,0,1,.46-.46h1.37a.48.48,0,0,1,.45.46v4.91c0,1.56.74,2.4,2,2.4a2.55,2.55,0,0,0,2.38-1.59V29.71c0-.38.19-.46.52-.46h1.25a.47.47,0,0,1,.45.46v8.67a.47.47,0,0,1-.45.46h-.67c-.24,0-.36-.17-.43-.39l-.24-.69A4.35,4.35,0,0,1,136,39.08c-2.87,0-3.88-2-3.88-4.53Z"/><circle class="cls-2" cx="85.94" cy="40.28" r="1.67"/></g></g></svg>