<svg xmlns="http://www.w3.org/2000/svg" viewBox="0 0 27 27"><defs><style>.cls-1{fill:none;}.cls-2{fill:#071052;}</style></defs><g id="Layer_2" data-name="Layer 2"><g id="iconcontact_blue" data-name="iconcontact blue"><g id="Ellisse_657" data-name="Ellisse 657"><circle class="cls-1" cx="13.5" cy="13.5" r="13.5"/><path class="cls-2" d="M13.5,27A13.5,13.5,0,1,1,27,13.5,13.52,13.52,0,0,1,13.5,27Zm0-26A12.5,12.5,0,1,0,26,13.5,12.52,12.52,0,0,0,13.5,1Z"/></g><path id="Tracciato_30933" data-name="Tracciato 30933" class="cls-2" d="M13.41,12.52c-4.76,0-6.07,6.13-6.12,6.39a.67.67,0,0,0,.33.73A12.08,12.08,0,0,0,13,21.06h.31a17.41,17.41,0,0,0,6-1.52.69.69,0,0,0,.38-.78c-.06-.26-1.55-6.24-6.3-6.24M16.85,19l-.57-1.35a.25.25,0,0,0-.33-.14.27.27,0,0,0-.14.34l.55,1.3a12.73,12.73,0,0,1-3.06.52,8.92,8.92,0,0,1-2.57-.31l0,0,.44-1.29a.24.24,0,0,0-.15-.32.26.26,0,0,0-.33.15h0l-.44,1.28a.2.2,0,0,0,0,.07,11.79,11.79,0,0,1-1.5-.56c.38-1.32,1.67-4.79,4.65-4.79s4.35,3.3,4.8,4.64c-.33.13-.8.31-1.35.48"/><path id="Tracciato_30934" data-name="Tracciato 30934" class="cls-2" d="M13.21,12.16A3.11,3.11,0,1,0,10.1,9.05a3.11,3.11,0,0,0,3.11,3.11m0-4.85a1.75,1.75,0,1,1-1.75,1.74h0a1.76,1.76,0,0,1,1.75-1.74"/></g></g></svg>