<svg xmlns="http://www.w3.org/2000/svg" viewBox="0 0 22 22"><defs><style>.cls-1{fill:#f4f7fe;}</style></defs><g id="Layer_2" data-name="Layer 2"><path class="cls-1" d="M4.62,6.83V12.1a.69.69,0,0,0,.27.55A10.4,10.4,0,0,0,11,14.57a9.94,9.94,0,0,0,6-1.93.69.69,0,0,0,.25-.54V6.88h0L19.67,6V9h0L19,10.1a.37.37,0,0,0,.12.49.41.41,0,0,0,.18.05.36.36,0,0,0,.31-.17l.32-.54.38.91a.33.33,0,0,0,.32.22.36.36,0,0,0,.33-.49l-.6-1.45a.27.27,0,0,0,0-.09s0,0,0,0V5.75l1.09-.39a.72.72,0,0,0,.47-.69A.71.71,0,0,0,21.42,4L11.13,1.19a.81.81,0,0,0-.38,0L.58,4a.71.71,0,0,0-.52.66.72.72,0,0,0,.47.69ZM11,13.16a9.48,9.48,0,0,1-5-1.43V10.67a9.54,9.54,0,0,0,9.85,0v1.07A8.85,8.85,0,0,1,11,13.16Zm4.87-2.91a9.2,9.2,0,0,1-9.85,0V7.34L10.78,9a.64.64,0,0,0,.24,0,.67.67,0,0,0,.24,0l4.62-1.66ZM10.94,2.61l8,2.18L11,7.63,3.1,4.78Zm9.47,12.77h-.32a.71.71,0,0,0-.38-.12H2.23a.69.69,0,0,0-.37.1A3.17,3.17,0,0,0,.53,18.05c0,2.46,1.51,2.76,1.57,2.77H20.26a.71.71,0,0,0,0-1.41c-.21,0-.87-.15-.87-1.44a1.63,1.63,0,0,1,.67-1.4.69.69,0,0,0,.34-.49h0c.16,0,.73.19.73,1.13a.8.8,0,0,1-.49.79c-.06,0-.06,0-.08,0a.35.35,0,0,0-.65.27.73.73,0,0,0,.69.47h.17a1.49,1.49,0,0,0,1.07-1.49C21.85,15.88,21,15.38,20.41,15.38ZM1.94,18.05a1.88,1.88,0,0,1,.53-1.38h7.81a2.31,2.31,0,0,0-.41,1.38,2.79,2.79,0,0,0,.32,1.37H2.36C2.19,19.32,1.94,18.93,1.94,18.05Zm8.67,1.37a2.23,2.23,0,0,1-.39-1.37,1.92,1.92,0,0,1,.51-1.38h7.51A3.18,3.18,0,0,0,18,18a3.71,3.71,0,0,0,.26,1.44Z"/></g></svg>