<?xml version="1.0" encoding="utf-8"?>
<!-- Generator: Adobe Illustrator 26.0.2, SVG Export Plug-In . SVG Version: 6.00 Build 0)  -->
<svg version="1.1" id="Livello_1" xmlns="http://www.w3.org/2000/svg" xmlns:xlink="http://www.w3.org/1999/xlink" x="0px" y="0px"
	 viewBox="0 0 22.058 6.036" style="enable-background:new 0 0 22.058 6.036;" xml:space="preserve">
<style type="text/css">
	.st0{fill:#FF0576;}
</style>
<path class="st0" d="M18.768,0.785l-5.537,3.227c-0.684,0.347-1.441,0.52-2.202,0.518C10.268,4.531,9.51,4.358,8.827,4.011
	L3.29,0.785C2.261,0.261,1.132-0.001,0,0v1.503c0.759-0.001,1.515,0.172,2.198,0.518L7.729,5.25c1.032,0.525,2.165,0.788,3.3,0.785
	c1.135,0.002,2.268-0.26,3.3-0.785l5.531-3.229c0.682-0.346,1.438-0.52,2.198-0.518V0C20.926-0.001,19.797,0.261,18.768,0.785z"/>
</svg>
